<?xml version="1.0" encoding="iso-8859-1"?>
<!-- Generator: Adobe Illustrator 18.0.0, SVG Export Plug-In . SVG Version: 6.00 Build 0)  -->
<!DOCTYPE svg PUBLIC "-//W3C//DTD SVG 1.1//EN" "http://www.w3.org/Graphics/SVG/1.1/DTD/svg11.dtd">
<svg version="1.1" id="Capa_1" xmlns="http://www.w3.org/2000/svg" xmlns:xlink="http://www.w3.org/1999/xlink" x="0px" y="0px"
	 viewBox="0 0 269.593 269.593" style="enable-background:new 0 0 269.593 269.593;" xml:space="preserve">
<path d="M225.561,35.333c-3.691-3.319-2.875-12.558-8.616-18.717c-5.127-5.736-8.063-4.871-9.046-5.901
	C206.926,9.683,208.36,0,202.131,0.007c-4.346-0.119-4.316,1.245-4.102,2.268c0.353,1.699,4.406,0.645,4.717,5.945
	c0.074,1.27-0.766,3.152-4.428,3.233c-3.073-2.656-21.539-9.226-6.564,2.883c-10.053,7.389-20.97,18.712-40.866,57.486
	c-8.844,15.063-18.979,13.412-30.156,30.358c-5.961,9.024-9.03,18.878-25.645,20.304c-16.617,1.438-39.6,3.903-42.881,23.603
	c-3.283,19.69-5.951,32.826-10.255,41.865c-4.105,6.35-6.768,12.098,2.871,27.073c-1.233-8.821,3.283-9.232,3.894-18.872
	c0.62-9.639-3.894-6.98-2.258-10.873c1.647-3.897,10.259-33.045,10.259-33.045s2.055,21.331,4.105,28.517
	c2.055,7.183,0.203,17.848-2.051,21.334c-2.258,3.496-0.754,9.238,0.443,19.285c1.197,10.06,2.497,31.605,2.497,31.605
	s-0.89,4.308,1.372,7.389c2.247,3.072,1.23,9.227,1.23,9.227h14.606c0,0-10.462-7.185-9.646-17.647
	c0.824-10.465,0.411-40.207,5.538-49.649c5.131-9.435,9.197-18.469,13.303-30.58c8.2,2.064,24.143,3.941,37.109-3.243
	c1.852,11.085,5.376,24.922,4.967,35.384c-3.757,5.616-2.018,14.442,0,16.492c-0.025,4.717,0.964,32.5,0.964,32.5
	s-3.641,4.324,0.037,9.355c-0.418,3.075-1.646,7.389-1.646,7.389h16.209l-7.389-7.795c0,0,3.491-4.311,0.419-9.035
	c-1.23-7.39-0.622-32.211-0.622-32.211s5.335-9.227,0.203-17.026c0.419-9.03,5.336-34.269,11.287-40.005
	c5.951-5.746,7.758-8.826,9.6-14.777c1.844-5.949,1.113-17.02,2.139-21.543c1.021-4.512,15.135-23.801,23.14-69.332
	c1.641-9.041,6.563-20.523,11.083-22.166c4.505-1.645,5.783,1.731,9.476,3.37c3.69,1.641,10.417,1.885,12.475,2.907
	c2.051,1.027,9.022,7.265,12.509,4.598C233.561,43.914,229.25,38.671,225.561,35.333z"/>
<g>
</g>
<g>
</g>
<g>
</g>
<g>
</g>
<g>
</g>
<g>
</g>
<g>
</g>
<g>
</g>
<g>
</g>
<g>
</g>
<g>
</g>
<g>
</g>
<g>
</g>
<g>
</g>
<g>
</g>
</svg>
