<?xml version="1.0" encoding="iso-8859-1"?>
<!-- Generator: Adobe Illustrator 16.0.0, SVG Export Plug-In . SVG Version: 6.00 Build 0)  -->
<!DOCTYPE svg PUBLIC "-//W3C//DTD SVG 1.1//EN" "http://www.w3.org/Graphics/SVG/1.1/DTD/svg11.dtd">
<svg version="1.1" id="Capa_1" xmlns="http://www.w3.org/2000/svg" xmlns:xlink="http://www.w3.org/1999/xlink" x="0px" y="0px"
	 width="573.841px" height="573.842px" viewBox="0 0 573.841 573.842" style="enable-background:new 0 0 573.841 573.842;"
	 xml:space="preserve">
<g>
	<g>
		<path d="M560.773,160.215c-3.62-1.518-8.103-1.995-11.751-0.303c-1.817,0.845-4.005,0.566-5.948,0.591
			c-2.24,0.027-4.395,0.486-6.523,1.166c-2.345,0.747-4.624,1.71-6.821,2.809c-0.651,0.328-1.304,0.539-1.961,0.71
			c2.255-4.443,4.336-8.959,6.202-13.528c0.242,0.062,0.489,0.098,0.726,0.19c1.606,0.621,3.191,1.267,4.887,1.616
			c2.017,0.416,3.969,0.012,5.97,0.251c1.436,0.171,2.867,0.823,4.296,1.104c1.741,0.343,3.531,0.609,5.31,0.606
			c2.834-0.009,7.904-0.328,9.088-3.565c0.939-2.57-2.225-4.446-4.164-5.26c-3.005-1.261-6.729-1.655-9.756-0.251
			c-1.508,0.701-3.326,0.471-4.938,0.49c-1.86,0.024-3.647,0.404-5.416,0.967c-1.83,0.584-3.604,1.334-5.331,2.179
			c4.924-12.417,8.351-25.147,9.921-37.546c0.101-0.805-0.443-1.549-1.239-1.698c-0.829-0.135-1.576,0.358-1.766,1.144
			c-3.002,12.405-7.57,24.646-13.593,36.438c-1.227-2.393-3.99-4.061-6.668-5.676c-2.276-1.374-4.859-2.932-4.904-4.256
			c-0.019-0.52,0.367-1.683,3.143-3.632c0.639-0.447,0.838-1.31,0.459-1.992c-0.383-0.691-1.222-0.976-1.938-0.667
			c-7.635,3.244-10.392,13.195-8.571,20.561c1.007,4.066,3.96,6.518,6.093,8.005c3.871,2.705,3.871,2.705,1.215,6.75
			c-6.701,10.227-14.716,20.248-23.862,29.948c0.251-1.016,0.444-2.044,0.536-3.097c0.181-2.139,0.03-4.571,1.15-6.512
			c2.252-3.892,2.053-8.871,0.572-12.978c-0.955-2.65-3.28-7.02-6.962-6.003c-4.639,1.282-5.565,7.986-5.845,11.747
			c-0.174,2.362,0.031,4.762,0.343,7.105c0.258,1.925,1.038,3.883,1.139,5.805c0.144,2.678-0.605,5.236-0.214,7.95
			c0.211,1.475,0.618,2.901,1.062,4.317c-1.417,1.371-2.84,2.739-4.303,4.094c-2.539,2.35-5.128,4.593-7.735,6.796
			c0.453-1.328,0.856-2.671,1.188-4.03c0.587-2.405,0.915-4.82,0.737-7.289c-0.156-2.142-0.683-4.526,0.125-6.604
			c1.622-4.167,0.646-9.063-1.456-12.913c-1.358-2.488-4.339-6.481-7.821-4.957c-4.389,1.918-4.263,8.681-3.95,12.438
			c0.192,2.359,0.771,4.703,1.447,6.977c0.554,1.867,1.631,3.696,2.031,5.582c0.558,2.628,0.218,5.263,1.025,7.895
			c0.658,2.145,1.704,4.128,2.724,6.129c-3.779,3.054-7.626,5.982-11.536,8.8c0.379-2.035,0.682-4.085,0.799-6.147
			c0.137-2.466,0.018-4.896-0.609-7.298c-0.545-2.084-1.503-4.345-1.086-6.524c0.832-4.37-1.022-9.033-3.798-12.479
			c-1.793-2.225-5.459-5.667-8.61-3.592c-0.799,0.526-1.335,1.245-1.748,2.038c-0.131-0.395-0.266-0.793-0.4-1.142
			c-2.273-5.878-6.714-11.594-12.727-13.926c-2.999-1.163-5.113-4.002-7.302-6.224c-2.524-2.559-5.452-4.541-8.604-6.249
			c-2.656-1.438-5.435-2.641-8.25-3.746c2.473-1.481,4.958-2.965,7.47-4.458c2.179-1.297,4.37-2.61,6.558-3.92
			c1.475,2.151,2.929,4.306,4.749,6.19c2.332,2.417,5.331,3.675,7.807,5.835c1.774,1.552,3.1,3.749,4.764,5.444
			c2.029,2.065,4.189,4.073,6.589,5.704c3.818,2.598,10.939,6.839,15.514,3.574c3.633-2.592,1.102-8.029-0.759-10.915
			c-2.882-4.464-7.53-8.424-12.897-9.324c-2.678-0.447-4.908-2.43-7.097-3.889c-2.521-1.68-5.281-2.818-8.179-3.688
			c-2.057-0.618-4.159-1.077-6.273-1.475c4.924-2.984,9.538-5.912,13.914-8.816c1.787,1.824,3.559,3.644,5.637,5.153
			c2.714,1.974,5.887,2.69,8.702,4.391c2.017,1.218,3.703,3.152,5.64,4.532c2.356,1.68,4.835,3.283,7.479,4.474
			c4.214,1.895,11.962,4.835,15.9,0.823c3.124-3.182-0.312-8.1-2.647-10.615c-3.617-3.895-8.88-6.989-14.32-6.937
			c-2.715,0.025-5.258-1.539-7.666-2.598c-2.778-1.218-5.691-1.857-8.696-2.209c-1.689-0.199-3.391-0.312-5.092-0.367
			c3.477-2.399,6.849-4.792,10.034-7.191c1.502-1.132,2.986-2.304,4.471-3.47c0.122,0.083,0.263,0.135,0.382,0.227
			c2.243,1.689,4.443,3.412,6.943,4.712c2.978,1.551,6.221,1.79,9.254,3.054c2.172,0.905,4.131,2.57,6.248,3.647
			c2.58,1.312,5.267,2.53,8.061,3.317c4.445,1.251,12.546,3.011,15.844-1.539c2.62-3.611-1.505-7.965-4.186-10.107
			c-4.152-3.317-9.816-5.597-15.189-4.743c-2.681,0.425-5.426-0.747-7.966-1.436c-2.929-0.792-5.902-0.994-8.926-0.899
			c-2.185,0.07-4.36,0.309-6.527,0.612c1.42-1.157,2.846-2.31,4.229-3.482c0.679-0.576,1.315-1.172,1.934-1.754
			c2.516-2.362,4.409-4.005,7.54-3.044c1.955,0.603,3.635,1.695,5.413,2.849c2.519,1.634,5.129,3.326,8.715,3.687
			c4.428,0.272,8.85-0.731,13.357-2.983c6.985-3.479,16.648-12.219,14.642-22.026c-0.146-0.704-0.762-1.212-1.481-1.221
			c-0.682,0.064-1.349,0.487-1.508,1.19c-0.444,1.934-2.16,8.244-5.677,8.244c-0.979,0-2.114-0.456-3.372-1.358
			c-0.397-0.291-1.025-0.826-1.806-1.49c-2.864-2.436-7.35-6.255-11.178-7.402c4.177-4.278,8.14-8.877,11.895-13.688
			c1.267-0.006,2.524,0.162,3.705,0.634c2.185,0.872,4.343,1.781,6.649,2.283c2.748,0.6,5.423,0.08,8.155,0.435
			c1.958,0.254,3.904,1.168,5.854,1.576c2.375,0.496,4.813,0.888,7.246,0.909c3.871,0.034,10.805-0.327,12.473-4.73
			c1.325-3.498-2.972-6.108-5.609-7.252c-4.085-1.769-9.167-2.365-13.326-0.493c-2.071,0.934-4.55,0.591-6.753,0.594
			c-2.54,0.003-4.991,0.496-7.415,1.236c-2.668,0.817-5.266,1.882-7.775,3.1c-0.845,0.41-1.677,0.67-2.53,0.857
			c4.976-6.457,9.532-13.326,13.62-20.465c1.12,0.138,2.212,0.428,3.2,0.976c1.846,1.019,3.66,2.072,5.655,2.775
			c2.375,0.842,4.811,0.68,7.2,1.301c1.711,0.447,3.339,1.478,5.024,2.056c2.057,0.707,4.18,1.331,6.337,1.622
			c3.437,0.465,9.643,0.924,11.619-2.803c1.57-2.959-1.955-5.762-4.171-7.075c-3.433-2.032-7.882-3.133-11.79-1.934
			c-1.946,0.597-4.112,0.016-6.071-0.232c-2.258-0.281-4.491-0.119-6.729,0.266c-2.463,0.429-4.893,1.081-7.262,1.882
			c-0.896,0.303-1.763,0.444-2.644,0.505c2.108-3.715,4.085-7.497,5.924-11.334c1.781-0.508,3.73-0.835,5.526-0.275
			c1.698,0.526,3.379,1.083,5.147,1.325c2.105,0.288,4.091-0.263,6.169-0.159c1.49,0.077,3.011,0.649,4.504,0.839
			c1.818,0.232,3.682,0.382,5.515,0.254c2.916-0.205,8.121-0.888,9.115-4.306c0.79-2.711-2.601-4.425-4.657-5.128
			c-3.186-1.089-7.047-1.236-10.067,0.422c-1.506,0.826-3.394,0.716-5.052,0.848c-1.913,0.153-3.73,0.67-5.511,1.374
			c-1.962,0.774-3.856,1.732-5.674,2.797c-1.304,0.765-2.61,1.043-4.098,1.294c-0.168,0.028-0.379,0.049-0.605,0.07
			c7.451-15.719,12.573-32.261,14.6-48.265c0.101-0.805-0.444-1.548-1.239-1.698c-0.823-0.131-1.576,0.358-1.766,1.145
			c-3.002,12.405-7.574,24.645-13.593,36.438c-1.23-2.393-3.993-4.061-6.671-5.676c-2.276-1.371-4.856-2.929-4.902-4.253
			c-0.019-0.521,0.367-1.683,3.143-3.632c0.64-0.447,0.839-1.31,0.459-1.992c-0.382-0.688-1.218-0.979-1.937-0.667
			c-7.632,3.241-10.392,13.195-8.571,20.56c1.007,4.064,3.96,6.515,6.093,8.002c3.871,2.705,3.871,2.705,1.215,6.753
			c-3.237,4.939-6.8,9.826-10.621,14.657c0.07-0.309,0.152-0.618,0.269-0.933c0.716-1.983,1.31-4.018,1.714-6.089
			c0.367-1.882,0.542-3.761,0.343-5.67c-0.175-1.656-0.627-3.492-0.092-5.123c1.077-3.274,0.227-7.044-1.426-9.976
			c-1.068-1.891-3.372-4.912-5.894-3.642c-3.177,1.604-2.898,6.842-2.564,9.749c0.208,1.824,0.697,3.626,1.258,5.374
			c0.459,1.432,1.304,2.824,1.649,4.275c0.483,2.022,0.306,4.076,0.973,6.092c0.561,1.695,1.414,3.244,2.243,4.816
			c0.367,0.695,0.56,1.447,0.68,2.219c-3.128,3.904-6.441,7.769-9.937,11.585c-0.149-1.019-0.205-2.025-0.049-3.115
			c0.355-2.472,0.551-4.981,0.523-7.481c-0.027-2.271-0.278-4.495-0.967-6.665c-0.6-1.882-1.57-3.902-1.341-5.924
			c0.466-4.061-1.432-8.231-4.058-11.236c-1.694-1.94-5.098-4.89-7.717-2.806c-3.302,2.625-1.717,8.642-0.631,11.934
			c0.683,2.068,1.684,4.042,2.755,5.934c0.878,1.551,2.19,2.965,2.943,4.565c1.05,2.234,1.334,4.657,2.595,6.839
			c1.059,1.833,2.424,3.427,3.764,5.052c0.826,1.003,1.331,2.2,1.671,3.452c-4.532,4.917-9.345,9.755-14.458,14.492
			c-1.084,1.003-2.204,1.925-3.299,2.897c-0.019-1.123,0.063-2.225,0.382-3.381c0.738-2.69,1.307-5.438,1.625-8.21
			c0.288-2.519,0.321-5.019-0.138-7.516c-0.4-2.167-1.19-4.541-0.651-6.747c1.08-4.431-0.435-9.315-2.923-13.011
			c-1.606-2.384-4.96-6.129-8.154-4.189c-4.024,2.445-3.109,9.327-2.368,13.127c0.465,2.387,1.297,4.713,2.218,6.956
			c0.756,1.842,2.011,3.589,2.62,5.465c0.847,2.619,0.826,5.343,1.918,7.938c0.915,2.179,2.203,4.134,3.461,6.12
			c0.769,1.215,1.16,2.598,1.365,4.018c-4.092,3.611-8.253,7.075-12.51,10.349c0.165-3.069,0.165-6.157-0.11-9.22
			c-0.272-2.993-0.835-5.903-1.971-8.69c-0.988-2.417-2.476-4.985-2.384-7.678c0.19-5.404-2.747-10.71-6.523-14.4
			c-2.438-2.384-7.234-5.921-10.475-2.898c-4.082,3.807-1.364,11.576,0.41,15.812c1.114,2.656,2.644,5.159,4.25,7.54
			c1.319,1.956,3.198,3.681,4.357,5.716c1.616,2.836,2.246,6.003,4.138,8.751c1.588,2.307,3.553,4.266,5.489,6.273
			c0.178,0.184,0.3,0.407,0.462,0.603c-5.067,3.81-10.254,7.409-15.526,10.888c-0.033-0.529-0.043-1.068-0.006-1.628
			c0.208-3.299,0.208-6.628-0.092-9.923c-0.272-2.993-0.835-5.903-1.971-8.69c-0.988-2.417-2.476-4.985-2.384-7.678
			c0.189-5.404-2.748-10.71-6.523-14.4c-2.439-2.384-7.234-5.921-10.475-2.898c-4.082,3.807-1.365,11.576,0.41,15.811
			c1.113,2.656,2.641,5.159,4.25,7.54c1.319,1.956,3.198,3.681,4.357,5.716c1.616,2.836,2.246,6.003,4.138,8.751
			c1.588,2.307,3.552,4.266,5.489,6.273c0.588,0.606,1.064,1.291,1.487,2.014c-5.407,3.534-10.925,6.934-16.519,10.272
			c-0.012-0.382-0.03-0.759-0.003-1.16c0.208-3.299,0.208-6.628-0.092-9.923c-0.272-2.993-0.832-5.903-1.971-8.69
			c-0.988-2.417-2.476-4.985-2.384-7.678c0.19-5.404-2.747-10.71-6.523-14.4c-2.438-2.384-7.234-5.921-10.475-2.898
			c-4.082,3.807-1.364,11.576,0.41,15.812c1.114,2.656,2.641,5.159,4.25,7.54c1.319,1.956,3.198,3.681,4.357,5.716
			c1.616,2.836,2.246,6.003,4.138,8.751c1.585,2.307,3.553,4.266,5.489,6.273c0.475,0.49,0.866,1.034,1.228,1.601
			c-5.918,3.513-11.935,6.979-18.029,10.453c0.003-0.174-0.013-0.339-0.004-0.517c0.208-3.299,0.208-6.628-0.092-9.923
			c-0.271-2.993-0.832-5.903-1.971-8.69c-0.988-2.417-2.475-4.985-2.383-7.678c0.189-5.404-2.748-10.71-6.524-14.4
			c-2.438-2.384-7.233-5.921-10.475-2.898c-4.082,3.807-1.364,11.576,0.41,15.811c1.114,2.656,2.641,5.159,4.25,7.54
			c0.239,0.355,0.512,0.698,0.78,1.041c-0.18-0.021-0.352-0.074-0.535-0.089c-0.713-0.064-1.423-0.098-2.123-0.098
			c-9.376,0-18.908,6.077-24.267,15.468c-4.299,7.25-2.671,12.653-0.948,18.373c0.793,2.628,1.609,5.352,1.888,8.418
			c0.386,4.253-2.142,6.239-6.3,9.122c-0.985,0.688-1.989,1.383-2.947,2.139c-0.281,0.22-0.551,0.453-0.832,0.676
			c-0.019-0.894,0.021-1.796,0.198-2.739c0.615-3.271,1.025-6.597,1.133-9.926c0.095-3.023-0.107-6.001-0.899-8.926
			c-0.688-2.537-1.861-5.285-1.436-7.965c0.854-5.376-1.426-11.037-4.743-15.189c-2.142-2.681-6.496-6.809-10.107-4.187
			c-4.55,3.299-2.787,11.399-1.536,15.845c0.787,2.791,2.005,5.48,3.317,8.057c1.077,2.118,2.742,4.073,3.647,6.246
			c1.264,3.032,1.503,6.276,3.054,9.253c1.301,2.5,3.026,4.7,4.713,6.943c0.768,1.022,1.272,2.188,1.658,3.397
			c-3.656,2.94-7.268,5.949-10.719,8.993c-1.995,1.763-3.951,3.538-5.863,5.324c-0.175-1.487-0.217-2.94,0.08-4.501
			c0.614-3.271,1.024-6.598,1.132-9.927c0.095-3.023-0.107-6-0.899-8.926c-0.688-2.537-1.86-5.284-1.436-7.965
			c0.854-5.376-1.426-11.038-4.743-15.19c-2.142-2.681-6.496-6.809-10.107-4.186c-0.627,0.456-1.11,1.016-1.515,1.628
			c-0.603-0.453-1.235-0.838-1.774-1.117c-2.897-1.493-6.576-2.182-9.706-1.019c-1.561,0.578-3.354,0.208-4.961,0.098
			c-1.854-0.122-3.669,0.113-5.474,0.539c-1.609,0.376-3.186,0.896-4.737,1.478c2.146-3.32,4.125-6.558,5.945-9.74
			c0.686-1.197,1.35-2.417,2.014-3.635c0.817,0.156,1.604,0.422,2.305,0.875c1.294,0.835,2.57,1.692,3.99,2.307
			c1.692,0.731,3.479,0.734,5.192,1.307c1.228,0.41,2.365,1.246,3.568,1.75c1.466,0.618,2.986,1.178,4.547,1.496
			c2.488,0.508,6.995,1.15,8.623-1.472c1.291-2.084-1.142-4.306-2.695-5.374c-2.408-1.652-5.604-2.677-8.514-1.995
			c-1.45,0.34-3.002-0.193-4.422-0.468c-1.634-0.318-3.273-0.309-4.926-0.138c-1.821,0.19-3.626,0.548-5.396,1.016
			c-0.691,0.184-1.353,0.236-2.02,0.229c1.077-1.992,2.133-3.997,3.14-6.016c0.285-0.569,0.536-1.141,0.78-1.701
			c0.343-0.783,0.646-1.393,0.955-1.925c0.915,0.144,1.802,0.41,2.579,0.912c1.295,0.835,2.57,1.692,3.99,2.307
			c1.692,0.731,3.479,0.734,5.193,1.307c1.227,0.41,2.365,1.245,3.567,1.75c1.466,0.618,2.987,1.178,4.548,1.496
			c2.487,0.508,6.995,1.15,8.623-1.472c1.291-2.084-1.142-4.306-2.696-5.374c-2.408-1.652-5.6-2.678-8.513-1.995
			c-1.35,0.315-2.778-0.116-4.112-0.401c0.22-0.052,0.446-0.07,0.664-0.141c2.974-1.056,5.679-3.002,8.048-5.796
			c3.659-4.321,7.585-12.935,3.396-18.951c-0.41-0.59-1.179-0.811-1.846-0.542c-0.664,0.278-1.046,0.979-0.918,1.689
			c0.505,2.766,0.318,5.006-0.502,5.985c-0.318,0.385-1.212,0.881-2.922,0.496c-0.331-0.074-0.875-0.245-1.558-0.453
			c-2.368-0.731-6.037-1.848-8.792-1.769c0.233-0.615,0.441-1.249,0.664-1.87c1.271-0.912,2.69-1.674,4.254-1.806
			c1.717-0.144,3.424-0.254,5.101-0.679c1.995-0.505,3.577-1.72,5.48-2.38c1.365-0.475,2.938-0.511,4.349-0.881
			c1.717-0.453,3.442-0.992,5.04-1.772c2.546-1.242,6.971-3.745,6.622-7.172c-0.275-2.724-3.941-3.03-6.044-2.917
			c-3.253,0.178-6.778,1.447-8.886,4.033c-1.053,1.288-2.788,1.876-4.229,2.595c-1.661,0.833-3.105,1.956-4.452,3.234
			c-1.481,1.408-2.834,2.953-4.079,4.572c-0.811,1.056-1.793,1.744-2.897,2.439c1.426-4.07,2.641-8.262,3.635-12.54
			c0.79-0.385,1.622-0.667,2.503-0.74c1.717-0.144,3.425-0.254,5.102-0.68c1.995-0.505,3.577-1.72,5.48-2.38
			c1.364-0.475,2.938-0.511,4.348-0.881c1.717-0.453,3.443-0.992,5.04-1.772c2.546-1.242,6.971-3.745,6.622-7.172
			c-0.275-2.724-3.941-3.029-6.044-2.916c-3.256,0.177-6.777,1.447-8.886,4.033c-1.053,1.289-2.788,1.876-4.229,2.595
			c-1.662,0.832-3.106,1.955-4.453,3.234c-1.48,1.407-2.833,2.953-4.079,4.571c-0.363,0.475-0.779,0.845-1.205,1.206
			c0.937-4.171,1.677-8.406,2.197-12.672c0.036-0.003,0.067-0.018,0.104-0.021c1.717-0.144,3.425-0.254,5.102-0.679
			c1.995-0.505,3.577-1.72,5.48-2.38c1.364-0.475,2.938-0.511,4.348-0.881c1.717-0.453,3.442-0.992,5.04-1.772
			c2.546-1.242,6.971-3.745,6.622-7.172c-0.275-2.724-3.941-3.03-6.044-2.917c-3.256,0.178-6.777,1.447-8.886,4.033
			c-1.053,1.288-2.788,1.876-4.229,2.595c-1.661,0.833-3.105,1.956-4.452,3.234c-0.982,0.937-1.891,1.946-2.769,2.984
			c0.363-3.706,0.584-7.417,0.63-11.114c0.637-0.26,1.291-0.468,1.982-0.526c1.717-0.144,3.425-0.254,5.102-0.68
			c1.995-0.505,3.577-1.72,5.48-2.38c1.364-0.475,2.938-0.511,4.349-0.881c1.716-0.453,3.442-0.992,5.039-1.772
			c2.546-1.242,6.971-3.746,6.622-7.172c-0.275-2.724-3.941-3.03-6.043-2.917c-3.253,0.178-6.778,1.448-8.887,4.033
			c-1.053,1.288-2.788,1.876-4.229,2.595c-1.662,0.833-3.106,1.956-4.453,3.235c-1.48,1.407-2.833,2.953-4.078,4.571
			c-0.27,0.352-0.588,0.609-0.894,0.894c0.049-10.906-1.282-21.622-4.082-31.38c-0.224-0.78-1.007-1.267-1.809-1.071
			c-0.793,0.181-1.307,0.945-1.172,1.744c1.456,8.623,1.915,17.549,1.367,26.585c-1.515-0.903-3.513-1.181-5.462-1.451
			c-1.487-0.205-3.736-0.52-4.027-1.147c-0.033-0.067-0.281-0.731,1.004-2.812c0.413-0.664,0.257-1.533-0.364-2.014
			c-0.611-0.48-1.499-0.419-2.041,0.153c-4.22,4.407-3.219,11.913,0.132,16.337c1.879,2.485,4.587,3.287,6.457,3.672
			c0.829,0.174,2.365,0.489,2.604,0.725c0.159,0.346-0.135,2.013-0.275,2.812c-0.511,2.886-1.142,5.802-1.852,8.733
			c-0.525-0.713-0.994-1.435-1.291-2.323c-0.575-1.735-1.267-3.442-2.103-5.07c-0.759-1.478-1.652-2.852-2.812-4.048
			c-1.007-1.034-2.301-2.041-2.812-3.442c-1.021-2.809-3.629-4.924-6.331-6.031c-1.744-0.716-4.936-1.536-5.97,0.686
			c-1.304,2.796,1.701,6.218,3.488,8.02c1.123,1.132,2.424,2.096,3.742,2.986c1.083,0.729,2.402,1.224,3.418,2.029
			c1.417,1.12,2.396,2.613,3.936,3.629c1.291,0.854,2.708,1.45,4.115,2.078c1.001,0.444,1.806,1.196,2.497,2.041
			c-0.982,3.969-2.212,7.99-3.556,12.029c0-0.027,0.009-0.04,0.006-0.073c-0.046-0.557-0.813-1.2-1.147-1.606
			c-0.829-1.013-1.521-1.943-1.934-3.188c-0.575-1.735-1.267-3.443-2.105-5.071c-0.762-1.478-1.652-2.852-2.812-4.048
			c-1.007-1.034-2.302-2.041-2.812-3.442c-1.022-2.809-3.629-4.923-6.331-6.031c-1.744-0.716-4.936-1.536-5.97,0.686
			c-1.307,2.797,1.701,6.218,3.488,8.02c1.123,1.132,2.424,2.096,3.743,2.987c1.083,0.728,2.405,1.224,3.418,2.029
			c1.417,1.12,2.396,2.613,3.935,3.629c1.292,0.854,2.709,1.451,4.116,2.078c1.548,0.688,2.662,2.087,3.55,3.485
			c0.03,0.046,0.6,0.823,0.795,0.725c-1.783,5.331-3.81,10.701-6.211,16.104c-0.135,0.303-0.288,0.587-0.426,0.891
			c-0.211-0.312-0.446-0.612-0.591-0.838c-0.774-1.239-1.413-2.365-1.695-3.801c-0.395-2.001-0.921-3.99-1.618-5.909
			c-0.637-1.744-1.43-3.391-2.549-4.877c-0.971-1.289-2.265-2.583-2.635-4.208c-0.74-3.256-3.33-5.958-6.166-7.564
			c-1.83-1.038-5.251-2.393-6.708-0.077c-1.836,2.917,1.013,7.124,2.738,9.37c1.083,1.411,2.39,2.663,3.727,3.832
			c1.096,0.96,2.488,1.692,3.501,2.723c1.411,1.438,2.289,3.229,3.85,4.572c1.31,1.126,2.794,1.986,4.269,2.876
			c1.618,0.979,2.656,2.684,3.442,4.357c0.006,0.015,0.055,0.101,0.116,0.205c-1.615,3.522-3.348,6.94-5.171,10.281
			c-0.272-0.428-0.566-0.829-0.774-1.328c-0.942-2.231-2.029-4.41-3.302-6.469c-1.156-1.87-2.476-3.592-4.131-5.046
			c-1.435-1.261-3.25-2.454-4.07-4.247c-1.643-3.599-5.3-6.114-8.978-7.298c-2.375-0.762-6.67-1.515-7.806,1.524
			c-1.429,3.828,2.892,8.026,5.435,10.217c1.597,1.377,3.415,2.516,5.248,3.55c1.506,0.851,3.299,1.365,4.722,2.319
			c1.986,1.331,3.434,3.198,5.569,4.379c1.793,0.992,3.721,1.634,5.646,2.313c0.698,0.248,1.325,0.627,1.922,1.053
			c-2.329,4.208-4.811,8.302-7.408,12.316c-0.444-0.606-0.845-1.239-1.16-1.983c-0.942-2.231-2.028-4.41-3.305-6.469
			c-1.157-1.87-2.476-3.592-4.131-5.046c-1.435-1.261-3.25-2.454-4.07-4.248c-1.643-3.599-5.3-6.114-8.978-7.298
			c-2.375-0.762-6.671-1.515-7.806,1.524c-1.429,3.828,2.892,8.026,5.438,10.217c1.598,1.377,3.415,2.515,5.248,3.549
			c1.502,0.851,3.299,1.365,4.722,2.32c1.986,1.328,3.433,3.197,5.569,4.379c1.793,0.991,3.721,1.634,5.646,2.313
			c0.887,0.312,1.667,0.823,2.393,1.411c-2.583,3.96-5.272,7.864-8.054,11.732c-0.18-0.315-0.401-0.591-0.551-0.943
			c-0.942-2.23-2.029-4.409-3.302-6.469c-1.157-1.87-2.476-3.592-4.131-5.046c-1.435-1.261-3.25-2.454-4.07-4.247
			c-1.643-3.599-5.3-6.114-8.978-7.298c-2.375-0.762-6.671-1.515-7.806,1.524c-1.429,3.828,2.892,8.026,5.438,10.217
			c1.598,1.377,3.415,2.516,5.248,3.55c1.502,0.851,3.299,1.365,4.722,2.319c1.986,1.331,3.433,3.198,5.569,4.379
			c1.793,0.991,3.721,1.634,5.646,2.313c0.523,0.184,1.016,0.431,1.481,0.722c-2.889,3.993-5.851,7.977-8.874,11.98
			c-0.906-2.108-1.937-4.171-3.143-6.123c-1.157-1.87-2.476-3.593-4.131-5.046c-1.435-1.261-3.25-2.454-4.07-4.248
			c-1.643-3.599-5.3-6.114-8.978-7.298c-2.375-0.762-6.671-1.515-7.806,1.524c-1.429,3.828,2.892,8.026,5.438,10.217
			c1.598,1.377,3.415,2.515,5.248,3.549c0.184,0.104,0.392,0.178,0.582,0.272c-0.062,0.019-0.125,0.024-0.19,0.046
			c-8.005,2.57-12.39,10.765-13.182,17.724c-0.799,6.107,1.952,9.385,4.611,12.558c1.236,1.469,2.512,2.996,3.528,4.869
			c1.322,2.445,0.328,4.256-1.539,7.24c-0.456,0.729-0.918,1.472-1.334,2.237c-1.867,3.452-3.635,6.928-5.251,10.337
			c-2.708,5.71-5.074,11.411-7.06,16.992c-4.667-12.852-11.175-25.181-19.357-36.769c0.597-0.625,1.239-1.203,1.986-1.652
			c2.207-1.331,4.425-2.613,6.389-4.296c2.341-2.004,3.654-4.682,5.768-6.83c1.518-1.539,3.602-2.635,5.245-4.066
			c2.001-1.744,3.957-3.614,5.582-5.722c2.588-3.357,6.857-9.648,4.116-14.015c-2.176-3.467-7.295-1.444-10.037,0.104
			c-4.244,2.399-8.124,6.438-9.238,11.307c-0.557,2.426-2.494,4.363-3.948,6.288c-1.677,2.219-2.867,4.685-3.822,7.289
			c-1.05,2.87-1.839,5.841-2.436,8.834c-0.11,0.56-0.263,1.089-0.441,1.598c-0.471-0.655-0.924-1.316-1.404-1.968
			c-3.054-4.098-6.426-8.207-10.064-12.258c0.364-0.306,0.719-0.621,1.129-0.869c2.204-1.331,4.425-2.613,6.39-4.296
			c2.341-2.004,3.653-4.682,5.768-6.83c1.518-1.54,3.602-2.635,5.245-4.067c2.001-1.744,3.957-3.617,5.582-5.722
			c2.585-3.357,6.857-9.648,4.116-14.015c-2.176-3.467-7.295-1.444-10.037,0.104c-4.247,2.399-8.124,6.438-9.238,11.307
			c-0.554,2.426-2.494,4.363-3.948,6.288c-1.677,2.219-2.867,4.685-3.822,7.289c-1.049,2.87-1.839,5.841-2.436,8.834
			c-0.034,0.168-0.092,0.321-0.129,0.484c-0.829-0.906-1.655-1.815-2.512-2.714c-2.638-2.766-5.404-5.521-8.225-8.173
			c-0.425-0.404-0.875-0.774-1.322-1.147c0.349-0.288,0.682-0.591,1.074-0.829c2.204-1.332,4.425-2.613,6.39-4.296
			c2.341-2.004,3.653-4.682,5.768-6.83c1.518-1.539,3.602-2.635,5.245-4.066c2.001-1.744,3.957-3.617,5.584-5.723
			c2.586-3.356,6.857-9.648,4.116-14.015c-2.176-3.467-7.295-1.444-10.037,0.104c-4.248,2.399-8.127,6.438-9.238,11.307
			c-0.554,2.427-2.494,4.364-3.947,6.289c-1.677,2.218-2.867,4.685-3.822,7.289c-1.049,2.87-1.839,5.841-2.436,8.834
			c-0.046,0.232-0.123,0.444-0.181,0.667c-2.167-1.863-3.32-3.25-2.885-5.686c0.376-2.099,1.11-3.944,1.827-5.731
			c1.533-3.843,3.118-7.815,0.456-13.341c-2.919-6.337-9.599-12.729-18.063-12.729c-0.698,0-1.377,0.076-2.053,0.159
			c0.86-1.723,1.558-3.51,2.613-5.156c1.166-1.818,2.983-3.317,4.296-5.058c1.6-2.121,3.13-4.352,4.287-6.748
			c1.842-3.816,4.73-10.851,1.147-14.56c-2.843-2.947-7.436,0.086-9.801,2.164c-3.663,3.219-6.628,7.971-6.717,12.962
			c-0.046,2.488-1.542,4.783-2.57,6.965c-1.184,2.519-1.845,5.171-2.243,7.919c-0.438,3.023-0.6,6.092-0.566,9.146
			c0.021,1.879-0.422,3.51-1.022,5.229c-5.729-3.957-11.359-7.882-16.824-11.918c0.639-1.781,1.521-3.479,2.907-4.768
			c1.885-1.756,3.794-3.467,5.37-5.517c1.879-2.442,2.613-5.333,4.241-7.87c1.166-1.818,2.984-3.317,4.296-5.059
			c1.601-2.12,3.13-4.351,4.287-6.747c1.842-3.816,4.731-10.851,1.15-14.56c-2.843-2.947-7.436,0.086-9.801,2.164
			c-3.663,3.219-6.628,7.971-6.72,12.962c-0.046,2.488-1.542,4.783-2.57,6.965c-1.184,2.518-1.845,5.171-2.24,7.919
			c-0.438,3.023-0.6,6.092-0.569,9.146c0.019,1.775-0.37,3.326-0.921,4.939c-5.159-3.825-10.159-7.791-15.003-11.974
			c0.615-1.481,1.423-2.867,2.598-3.96c1.885-1.756,3.794-3.467,5.37-5.517c1.879-2.442,2.613-5.333,4.241-7.87
			c1.166-1.818,2.984-3.317,4.296-5.058c1.601-2.121,3.13-4.352,4.287-6.748c1.842-3.816,4.731-10.851,1.147-14.56
			c-2.843-2.947-7.436,0.086-9.801,2.164c-3.663,3.219-6.628,7.971-6.72,12.962c-0.046,2.488-1.542,4.783-2.57,6.965
			c-1.184,2.519-1.845,5.171-2.24,7.919c-0.438,3.023-0.6,6.093-0.569,9.146c0.015,1.444-0.251,2.739-0.64,4.039
			c-4.676-4.069-9.192-8.369-13.5-13.026c0.239-0.284,0.447-0.59,0.722-0.844c1.885-1.756,3.794-3.467,5.37-5.517
			c1.879-2.442,2.613-5.334,4.241-7.871c1.169-1.818,2.983-3.317,4.296-5.058c1.6-2.121,3.13-4.352,4.287-6.747
			c1.842-3.816,4.73-10.851,1.15-14.56c-2.843-2.947-7.436,0.085-9.801,2.163c-3.663,3.219-6.631,7.972-6.72,12.962
			c-0.046,2.488-1.542,4.783-2.57,6.964c-1.184,2.519-1.845,5.171-2.243,7.919c-0.413,2.849-0.563,5.737-0.554,8.617
			c-3.706-4.137-7.139-8.338-10.303-12.589c0.208-0.459,0.435-0.909,0.729-1.325c1.254-1.772,2.54-3.513,3.488-5.478
			c1.132-2.338,1.246-4.853,2.154-7.228c0.652-1.702,1.897-3.253,2.681-4.915c0.958-2.025,1.842-4.131,2.387-6.307
			c0.869-3.467,2.047-9.773-1.545-12.222c-2.852-1.946-6.126,1.344-7.723,3.467c-2.473,3.286-4.11,7.717-3.33,11.857
			c0.389,2.062-0.456,4.213-0.93,6.193c-0.548,2.283-0.636,4.587-0.496,6.925c0.141,2.292,0.49,4.572,0.945,6.824
			c-3.865-5.376-7.286-10.823-10.232-16.301c-0.383-0.713-1.184-2.203-1.151-2.555c0.163-0.325,1.524-1.108,2.255-1.533
			c1.659-0.955,3.978-2.57,4.982-5.511c1.796-5.254,0.397-12.69-4.991-15.557c-0.682-0.367-1.545-0.156-1.983,0.496
			c-0.44,0.648-0.318,1.524,0.285,2.025c1.87,1.573,1.845,2.28,1.836,2.356c-0.083,0.691-2.121,1.689-3.47,2.353
			c-1.748,0.854-3.538,1.735-4.728,3.112c-3.356-8.43-5.716-17.059-7.029-25.701c-0.119-0.802-0.805-1.34-1.658-1.294
			c-0.808,0.077-1.414,0.774-1.383,1.585c0.942,24.012,11.27,50.563,27.167,70.221c-2.414,0.709-5.156,2.558-7.8,4.437
			c-0.575,0.413-1.041,0.743-1.331,0.918c-0.777,0.462-1.459,0.701-2.026,0.701c-1.808,0-2.867-2.99-3.256-5.787
			c-0.098-0.71-0.682-1.258-1.398-1.316c-0.688-0.061-1.38,0.404-1.585,1.089c-2.09,7.029,4.336,13.975,9.165,16.934
			c3.115,1.907,6.298,2.913,9.508,2.987c2.619-0.037,4.611-1.093,6.536-2.115c1.294-0.688,2.518-1.34,3.874-1.631
			c1.967-0.407,2.947,0.511,4.7,2.476c0.404,0.45,0.823,0.915,1.267,1.365c0.86,0.869,1.784,1.683,2.665,2.54
			c-1.23,0.033-2.408-0.043-3.653-0.41c-2.47-0.731-5-1.304-7.552-1.646c-2.322-0.309-4.626-0.385-6.943-0.006
			c-2.007,0.33-4.214,1.019-6.243,0.48c-4.073-1.077-8.611,0.235-12.065,2.466c-2.231,1.441-5.75,4.471-4.015,7.454
			c2.185,3.761,8.559,3.039,12.081,2.42c2.209-0.386,4.376-1.114,6.463-1.925c1.713-0.664,3.351-1.793,5.095-2.322
			c2.436-0.738,4.951-0.667,7.362-1.628c2.026-0.805,3.856-1.962,5.713-3.085c1.31-0.792,2.815-1.12,4.342-1.242
			c1.68,1.622,3.335,3.271,5.062,4.823c2.237,2.013,4.621,4.033,7.096,6.068c-0.68,0.043-1.365,0.046-2.087-0.055
			c-2.549-0.355-5.135-0.551-7.714-0.511c-2.341,0.037-4.633,0.303-6.867,1.022c-1.937,0.624-4.018,1.631-6.104,1.401
			c-4.186-0.462-8.479,1.505-11.57,4.223c-1.992,1.753-5.025,5.272-2.868,7.965c2.717,3.394,8.914,1.738,12.305,0.609
			c2.129-0.71,4.162-1.75,6.107-2.858c1.598-0.912,3.048-2.268,4.694-3.048c2.298-1.089,4.795-1.392,7.041-2.702
			c1.885-1.095,3.522-2.509,5.196-3.898c0.799-0.664,1.726-1.114,2.699-1.459c3.617,2.947,7.482,5.934,11.72,9.027
			c0.059,0.043,0.117,0.083,0.175,0.125c-0.729,0.193-1.472,0.331-2.28,0.358c-2.574,0.092-5.153,0.349-7.684,0.838
			c-2.298,0.443-4.511,1.102-6.585,2.2c-1.799,0.952-3.672,2.304-5.768,2.438c-4.204,0.272-8.09,2.959-10.658,6.169
			c-1.659,2.075-4.03,6.065-1.438,8.345c3.265,2.871,9.079,0.162,12.222-1.539c1.974-1.068,3.794-2.445,5.517-3.877
			c1.414-1.175,2.607-2.763,4.095-3.819c2.074-1.472,4.482-2.207,6.465-3.883c1.665-1.408,3.033-3.084,4.437-4.74
			c0.683-0.805,1.53-1.417,2.445-1.931c1.937,1.405,3.871,2.803,5.805,4.192c1.98,1.426,3.935,2.836,5.878,4.247
			c-0.695,0.321-1.411,0.606-2.204,0.802c-2.965,0.729-5.899,1.646-8.721,2.821c-2.562,1.068-4.973,2.366-7.115,4.14
			c-1.857,1.539-3.708,3.559-6.107,4.22c-4.813,1.328-8.678,5.38-10.888,9.728c-1.42,2.793-3.195,7.959,0.3,10
			c-0.832,0.704-1.585,1.435-2.197,2.093c-4.287,4.617-7.482,11.11-6.946,17.543c0.266,3.207-1.359,6.349-2.396,9.29
			c-1.193,3.391-1.695,6.891-1.848,10.474c-0.168,3.944,0.024,7.914,0.465,11.833c0.251,2.216-0.027,4.211-0.496,6.294
			c-6.772-4.504-13.363-9.312-19.783-14.498c0.48-0.955,1.031-1.87,1.741-2.684c2.194-2.503,4.425-4.951,6.185-7.794
			c2.096-3.384,2.665-7.197,4.428-10.673c1.264-2.491,3.403-4.654,4.865-7.065c1.781-2.935,3.458-6.004,4.633-9.235
			c1.87-5.147,4.664-14.569-0.422-18.871c-4.04-3.415-9.55,1.08-12.32,4.061c-4.287,4.617-7.481,11.111-6.946,17.543
			c0.267,3.207-1.361,6.35-2.396,9.29c-1.193,3.391-1.695,6.891-1.848,10.475c-0.168,3.944,0.024,7.913,0.465,11.833
			c0.07,0.624,0.085,1.227,0.083,1.824c-2.118-1.741-4.241-3.473-6.319-5.312c-3.234-2.867-6.337-5.783-9.352-8.727
			c0.147-1.787,0.523-3.543,1.408-5.104c1.383-2.442,2.806-4.847,3.773-7.497c1.15-3.155,0.967-6.401,1.827-9.572
			c0.618-2.273,2.014-4.428,2.806-6.667c0.967-2.727,1.827-5.551,2.243-8.421c0.664-4.571,1.358-12.83-3.581-15.514
			c-3.919-2.13-7.702,2.527-9.479,5.462c-2.751,4.547-4.278,10.459-2.733,15.679c0.768,2.601-0.037,5.478-0.389,8.082
			c-0.407,3.005-0.22,5.982,0.267,8.969c0.539,3.287,1.374,6.53,2.411,9.694c0.459,1.401,0.615,2.748,0.652,4.128
			c-10.468-10.318-19.578-21.071-27.154-32.093c-2.742-3.994-2.742-3.994,1.074-6.781c2.103-1.536,5-4.052,5.918-8.134
			c1.662-7.399-1.312-17.289-9.012-20.367c-0.722-0.297-1.557,0.012-1.921,0.704s-0.15,1.551,0.502,1.983
			c2.818,1.888,3.228,3.045,3.222,3.565c-0.019,1.325-2.562,2.935-4.808,4.357c-2.61,1.655-5.3,3.363-6.536,5.845
			c-6.282-11.671-11.114-23.816-14.385-36.157c-0.208-0.783-1.001-1.294-1.787-1.104c-0.796,0.162-1.325,0.921-1.206,1.72
			c5.018,33.782,23.825,69.731,49.443,94.86c-3.442,1.108-7.43,4.461-11.007,7.638c-0.768,0.686-1.383,1.236-1.778,1.533
			c-1.264,0.955-2.411,1.438-3.409,1.438c-3.47,0-5.303-6.218-5.784-8.124c-0.174-0.683-0.786-1.157-1.484-1.157
			c-0.016,0-0.034,0-0.052,0c-0.719,0.024-1.325,0.548-1.457,1.255c-1.799,9.844,8.054,18.375,15.11,21.708
			c3.898,1.842,7.775,2.772,11.527,2.772c0.627,0,1.258-0.027,1.953-0.085c3.519-0.435,6.086-2.179,8.571-3.871
			c1.753-1.193,3.409-2.316,5.352-2.962c3.118-1.037,5.037,0.566,7.604,2.876c0.63,0.569,1.279,1.15,1.971,1.71
			c2.439,1.983,4.957,3.935,7.5,5.863c-0.964,0.034-1.934-0.003-2.953-0.196c-3.271-0.615-6.598-1.025-9.927-1.132
			c-3.023-0.095-6.001,0.107-8.926,0.899c-2.537,0.688-5.285,1.86-7.965,1.435c-5.376-0.854-11.038,1.426-15.19,4.743
			c-2.681,2.142-6.809,6.496-4.186,10.107c3.298,4.55,11.398,2.788,15.845,1.54c2.793-0.787,5.48-2.004,8.06-3.317
			c2.117-1.077,4.073-2.742,6.249-3.647c3.032-1.264,6.276-1.502,9.253-3.054c2.5-1.301,4.7-3.023,6.943-4.712
			c1.166-0.878,2.506-1.444,3.908-1.836c1.411,1.056,2.812,2.121,4.241,3.152c4.22,3.039,8.678,6.053,13.396,9.082
			c-0.572,0.058-1.157,0.08-1.769,0.058c-3.326-0.125-6.677-0.04-9.985,0.349c-3.005,0.352-5.918,0.992-8.696,2.209
			c-2.408,1.056-4.951,2.623-7.663,2.598c-5.443-0.049-10.707,3.042-14.324,6.938c-2.334,2.515-5.771,7.433-2.647,10.615
			c3.936,4.012,11.687,1.071,15.9-0.823c2.647-1.19,5.123-2.791,7.479-4.474c1.934-1.38,3.623-3.314,5.64-4.532
			c2.812-1.698,5.985-2.414,8.7-4.391c2.283-1.655,4.201-3.687,6.169-5.688c0.78-0.792,1.705-1.392,2.677-1.913
			c4.734,3.005,9.728,6.025,15.089,9.104c0.542,0.312,1.083,0.615,1.625,0.924c-0.795,0.275-1.616,0.508-2.512,0.63
			c-3.299,0.456-6.582,1.123-9.771,2.078c-2.898,0.869-5.655,2.007-8.18,3.688c-2.188,1.459-4.421,3.442-7.096,3.889
			c-5.368,0.896-10.016,4.859-12.898,9.324c-1.861,2.882-4.391,8.322-0.759,10.914c4.575,3.266,11.695-0.976,15.515-3.573
			c2.399-1.631,4.559-3.642,6.588-5.704c1.665-1.695,2.99-3.895,4.765-5.443c2.476-2.164,5.474-3.418,7.806-5.835
			c1.958-2.029,3.498-4.36,5.086-6.674c0.713-1.037,1.64-1.873,2.647-2.613c2.479,1.414,4.96,2.828,7.43,4.226
			c2.962,1.677,5.881,3.335,8.785,4.997c-0.805,0.468-1.643,0.897-2.583,1.23c-3.718,1.322-7.369,2.889-10.842,4.768
			c-3.155,1.707-6.083,3.69-8.604,6.249c-2.188,2.221-4.302,5.061-7.301,6.224c-6.016,2.334-10.456,8.051-12.727,13.926
			c-1.466,3.794-3.094,10.719,1.747,12.852c6.096,2.69,13.342-3.947,17.148-7.885c2.39-2.473,4.416-5.325,6.273-8.211
			c1.527-2.368,2.534-5.241,4.22-7.466c2.353-3.106,5.529-5.287,7.656-8.653c1.784-2.824,3.008-5.903,4.299-8.972
			c0.508-1.212,1.264-2.271,2.099-3.268c7.029,4.036,13.893,8.109,20.579,12.472c-1.454,1.104-2.95,2.044-4.774,2.692
			c-3.718,1.322-7.368,2.889-10.841,4.765c-3.155,1.707-6.083,3.69-8.608,6.248c-2.188,2.222-4.302,5.059-7.301,6.225
			c-6.016,2.335-10.456,8.051-12.729,13.926c-1.466,3.795-3.094,10.719,1.747,12.852c6.096,2.69,13.342-3.947,17.148-7.885
			c2.39-2.473,4.416-5.325,6.273-8.21c1.524-2.369,2.534-5.242,4.22-7.467c2.353-3.105,5.533-5.288,7.656-8.653
			c1.784-2.825,3.008-5.903,4.299-8.973c0.814-1.942,2.169-3.559,3.721-4.981c5.484,3.605,10.857,7.405,16.111,11.57
			c1.11,0.881,2.175,1.783,3.265,2.677c-1.166,0.802-2.39,1.487-3.819,1.995c-3.718,1.322-7.368,2.889-10.841,4.768
			c-3.155,1.708-6.083,3.69-8.605,6.249c-2.188,2.222-4.302,5.061-7.301,6.224c-6.016,2.335-10.456,8.051-12.726,13.927
			c-1.466,3.794-3.094,10.719,1.744,12.852c6.095,2.689,13.341-3.947,17.148-7.886c2.39-2.473,4.416-5.324,6.273-8.21
			c1.527-2.368,2.534-5.242,4.22-7.467c2.354-3.105,5.53-5.287,7.653-8.653c1.784-2.824,3.008-5.902,4.299-8.972
			c0.652-1.558,1.658-2.904,2.824-4.116c6.548,5.413,12.696,11.025,18.427,16.824c-0.235,0.098-0.45,0.214-0.694,0.303
			c-3.718,1.322-7.369,2.889-10.842,4.768c-3.155,1.708-6.083,3.69-8.604,6.249c-2.188,2.221-4.303,5.058-7.301,6.224
			c-6.016,2.335-10.456,8.051-12.727,13.926c-1.466,3.795-3.094,10.72,1.747,12.853c6.096,2.689,13.342-3.947,17.148-7.886
			c2.39-2.473,4.416-5.324,6.273-8.21c1.527-2.368,2.534-5.242,4.22-7.467c2.353-3.105,5.529-5.287,7.653-8.653
			c1.784-2.824,3.008-5.903,4.299-8.972c0.187-0.447,0.465-0.836,0.701-1.252c7.91,8.186,15.012,16.72,21.212,25.557
			c-3.231,1.311-6.105,3.263-8.898,5.163c-3.381,2.295-6.576,4.464-10.264,5.502c-5.232,1.475-8.198-2.623-9.467-12.89
			c-0.092-0.746-0.713-1.315-1.466-1.34c-0.019,0-0.037,0-0.052,0c-0.731,0-1.365,0.521-1.502,1.242
			c-2.644,13.85,6.398,25.658,15.747,32.091c10.783,7.43,21.114,8.253,33.042,2.585c12.506,34.71,19.079,74.548,20.674,125.176
			l0.101,3.969l-3.684-0.046c-121.188,0.518-190.252,14.052-199.729,39.141c-4.587,12.136,6.267,21.971,6.729,22.381
			c0.282,0.248,0.643,0.386,1.016,0.386H488.45c0.417,0,0.812-0.169,1.099-0.466c0.389-0.4,9.483-9.981,4.474-21.812
			c-7.585-17.913-48.201-39.271-198.588-39.271l-3.182-0.04l0.018-4.324c0.493-50.646,6.206-90.615,17.963-125.598
			c12.035,5.423,22.356,4.37,32.98-3.295c9.201-6.638,17.986-18.642,15.043-32.424c-0.159-0.734-0.759-1.316-1.582-1.209
			c-0.75,0.04-1.361,0.621-1.438,1.371c-1.05,10.284-3.947,14.458-9.186,13.088c-3.709-0.955-6.949-3.058-10.383-5.282
			c-2.834-1.839-5.747-3.727-9.006-4.966c6.744-10.064,14.64-19.765,23.547-29.049c0.189,0.346,0.422,0.661,0.575,1.025
			c1.288,3.068,2.513,6.147,4.3,8.972c2.123,3.366,5.303,5.548,7.655,8.653c1.687,2.228,2.696,5.099,4.22,7.467
			c1.857,2.886,3.884,5.737,6.273,8.21c3.807,3.935,11.053,10.575,17.148,7.886c4.841-2.136,3.213-9.058,1.747-12.853
			c-2.273-5.878-6.714-11.594-12.727-13.926c-2.999-1.163-5.113-4.003-7.301-6.224c-2.524-2.559-5.453-4.541-8.608-6.249
			c-3.473-1.879-7.123-3.442-10.842-4.765c-0.18-0.063-0.336-0.152-0.511-0.22c5.691-5.796,11.806-11.411,18.299-16.84
			c1.139,1.197,2.127,2.521,2.767,4.052c1.288,3.069,2.512,6.147,4.299,8.972c2.124,3.366,5.304,5.548,7.656,8.654
			c1.687,2.228,2.696,5.098,4.22,7.466c1.857,2.886,3.883,5.737,6.273,8.21c3.81,3.936,11.053,10.576,17.148,7.886
			c4.841-2.136,3.213-9.058,1.747-12.852c-2.273-5.879-6.714-11.595-12.727-13.927c-2.999-1.162-5.113-4.002-7.302-6.224
			c-2.524-2.558-5.452-4.541-8.607-6.248c-3.473-1.879-7.124-3.443-10.842-4.765c-1.407-0.499-2.619-1.172-3.767-1.955
			c6.267-5.19,12.721-9.851,19.339-14.269c1.546,1.416,2.892,3.029,3.703,4.966c1.288,3.069,2.512,6.147,4.299,8.972
			c2.124,3.366,5.304,5.548,7.656,8.653c1.687,2.229,2.696,5.099,4.22,7.467c1.857,2.886,3.883,5.737,6.273,8.21
			c3.81,3.936,11.053,10.575,17.147,7.886c4.842-2.136,3.214-9.058,1.748-12.852c-2.273-5.879-6.714-11.595-12.729-13.927
			c-2.999-1.162-5.113-4.002-7.302-6.224c-2.524-2.559-5.453-4.541-8.607-6.248c-3.474-1.879-7.124-3.442-10.842-4.768
			c-1.814-0.646-3.305-1.579-4.749-2.674c6.083-4.033,12.313-7.879,18.685-11.708c0.195,0.229,0.392,0.254,0.523-0.254
			c0.003-0.018-0.007-0.042,0-0.061c0.385-0.232,0.765-0.462,1.153-0.694c0.924,1.059,1.747,2.194,2.295,3.498
			c1.288,3.069,2.513,6.147,4.299,8.972c2.124,3.366,5.304,5.547,7.656,8.654c1.687,2.228,2.696,5.098,4.22,7.466
			c1.857,2.886,3.884,5.737,6.273,8.21c3.81,3.936,11.053,10.575,17.148,7.886c4.841-2.136,3.213-9.058,1.747-12.852
			c-2.273-5.879-6.714-11.595-12.729-13.927c-2.999-1.162-5.113-4.002-7.302-6.223c-2.524-2.558-5.452-4.541-8.607-6.249
			c-3.473-1.879-7.124-3.443-10.842-4.765c-1.064-0.376-2.001-0.872-2.9-1.417c1.729-1.031,3.464-2.066,5.214-3.106
			c3.356-1.995,6.72-4,10.089-6.031c0.211-0.128,0.4-0.251,0.612-0.379c1.267,0.835,2.405,1.839,3.265,3.093
			c1.591,2.313,3.127,4.646,5.086,6.674c2.331,2.417,5.33,3.672,7.806,5.835c1.775,1.552,3.1,3.749,4.765,5.444
			c2.028,2.065,4.189,4.072,6.588,5.704c3.819,2.598,10.939,6.839,15.515,3.573c3.632-2.592,1.102-8.029-0.759-10.915
			c-2.883-4.464-7.531-8.424-12.898-9.324c-2.677-0.447-4.908-2.43-7.096-3.889c-2.524-1.68-5.281-2.818-8.18-3.688
			c-3.191-0.955-6.475-1.625-9.771-2.078c-1.248-0.171-2.365-0.52-3.448-0.973c5.789-3.528,11.156-6.979,16.19-10.398
			c1.536,0.618,2.978,1.441,4.14,2.623c1.968,2.001,3.89,4.033,6.169,5.688c2.718,1.974,5.888,2.69,8.7,4.391
			c2.017,1.218,3.702,3.152,5.64,4.532c2.355,1.68,4.835,3.284,7.479,4.474c4.214,1.894,11.961,4.834,15.899,0.823
			c3.124-3.182-0.312-8.1-2.646-10.615c-3.617-3.896-8.88-6.989-14.321-6.937c-2.714,0.024-5.257-1.54-7.665-2.598
			c-2.778-1.218-5.691-1.857-8.696-2.209c-3.309-0.389-6.659-0.474-9.982-0.349c-1.358,0.052-2.601-0.132-3.837-0.428
			c3.834-2.625,7.527-5.239,11.001-7.855c1.971-1.487,3.926-3.014,5.866-4.56c2.405,0.294,4.807,0.924,6.747,2.387
			c2.243,1.689,4.443,3.412,6.943,4.712c2.978,1.551,6.221,1.79,9.253,3.054c2.173,0.906,4.128,2.571,6.249,3.648
			c2.579,1.312,5.266,2.53,8.06,3.317c4.446,1.251,12.546,3.011,15.845-1.539c2.619-3.611-1.506-7.965-4.186-10.107
			c-4.152-3.317-9.816-5.597-15.19-4.743c-2.681,0.425-5.425-0.747-7.965-1.435c-2.929-0.792-5.903-0.994-8.926-0.899
			c-3.33,0.107-6.656,0.517-9.927,1.132c-2.121,0.401-4.039,0.199-6.12-0.153c2.022-1.622,4.023-3.268,5.988-4.93
			c0.676-0.575,1.31-1.169,1.928-1.744c2.519-2.372,4.431-4.002,7.543-3.051c1.955,0.603,3.636,1.692,5.413,2.846
			c2.521,1.634,5.129,3.326,8.718,3.688c4.413,0.269,8.847-0.729,13.357-2.98c6.982-3.482,16.646-12.225,14.639-22.029
			c-0.146-0.704-0.762-1.212-1.481-1.221c-0.006,0-0.012,0-0.018,0c-0.713,0-1.334,0.493-1.49,1.19
			c-0.444,1.934-2.16,8.247-5.674,8.247c-0.982,0-2.117-0.459-3.375-1.362c-0.397-0.291-1.021-0.826-1.806-1.487
			c-2.864-2.439-7.35-6.255-11.178-7.405c3.134-3.21,6.16-6.588,9.061-10.107c2.454-0.45,5.037-0.593,7.378,0.312
			c2.479,0.955,4.923,1.955,7.536,2.491c3.112,0.643,6.123,0.018,9.211,0.385c2.213,0.263,4.422,1.27,6.628,1.705
			c2.687,0.526,5.447,0.942,8.191,0.933c4.37-0.012,12.194-0.505,14.021-5.499c1.45-3.963-3.431-6.857-6.423-8.115
			c-4.636-1.943-10.38-2.555-15.05-0.385c-2.328,1.08-5.131,0.725-7.616,0.756c-2.867,0.037-5.627,0.621-8.354,1.49
			c-3.002,0.958-5.921,2.191-8.739,3.599c-1.986,0.995-3.933,1.282-6.129,1.506c4.348-5.34,8.408-10.992,12.145-16.876
			c1.025,0.024,2.041,0.156,3.002,0.526c2.057,0.792,4.092,1.625,6.261,2.068c2.583,0.533,5.086,0.015,7.65,0.321
			c1.839,0.217,3.672,1.056,5.505,1.414c2.23,0.438,4.525,0.78,6.802,0.774c3.63-0.009,10.129-0.419,11.644-4.565
			c1.206-3.293-2.849-5.695-5.337-6.738c-3.853-1.616-8.62-2.121-12.5-0.321c-1.934,0.896-4.259,0.603-6.325,0.627
			c-2.383,0.03-4.675,0.517-6.939,1.239c-2.494,0.795-4.918,1.821-7.259,2.99c-0.636,0.318-1.272,0.532-1.912,0.707
			c2.757-4.403,5.327-8.926,7.702-13.541c0.979,0.019,1.949,0.144,2.87,0.499c1.934,0.747,3.847,1.527,5.885,1.946
			c2.43,0.501,4.779,0.015,7.19,0.3c1.729,0.205,3.452,0.991,5.175,1.331c2.099,0.413,4.253,0.734,6.396,0.728
			c3.412-0.009,9.522-0.395,10.945-4.293C566.92,163.456,563.111,161.198,560.773,160.215z M304.684,123.116
			c1.408-0.138,2.742,0.085,4.189,0.336c0.037,0.006,0.073,0.009,0.11,0.016c-1.509,0.205-3.011,0.489-4.483,0.878
			c-0.773,0.205-1.515,0.235-2.264,0.217C302.821,123.737,303.506,123.245,304.684,123.116z M203.325,203.04
			c-2.207,0.701-4.232,1.775-6.203,2.821c-2.519,1.34-4.902,2.607-7.5,3.039c-0.315,0.052-0.502,0.08-0.885,0.077
			c-1.006,0-3.978-0.052-4.241-8.816c1.891-1.763,4.061-3.146,5.71-5.251c1.542-1.971,2.699-4.167,3.889-6.355
			C197.508,193.297,200.596,198.129,203.325,203.04z M155.629,129.31c1.591-1.481,3.155-2.971,4.565-4.621
			c0.006,0,0.012,0.003,0.019,0.003c0.456-0.043,1.003-0.07,1.594-0.07c1.677,0,5.578,0.248,5.594,2.519
			c-0.003,2.512-1.414,4.877-2.904,7.38c-1.132,1.9-2.295,3.85-2.931,5.998c-2.05-1.423-4.101-2.839-6.148-4.25
			c-0.939-0.646-1.86-1.288-2.793-1.931C153.267,132.458,154.175,130.662,155.629,129.31z M129.062,172.893
			c2.035-1.717,3.816-3.754,5.471-5.829c1.358-1.705,2.359-3.837,3.831-5.419c2.053-2.206,4.673-3.638,6.57-6.065
			c1.594-2.035,2.778-4.312,4.012-6.573c0.505-0.924,1.196-1.708,1.952-2.43c5.052,3.684,9.958,7.396,14.688,11.343
			c-1.172,0.71-2.368,1.294-3.782,1.64c-2.965,0.729-5.899,1.646-8.721,2.821c-2.562,1.068-4.973,2.366-7.115,4.14
			c-1.857,1.54-3.708,3.559-6.107,4.22c-4.813,1.328-8.678,5.38-10.888,9.728c-0.263,0.517-0.529,1.135-0.783,1.781
			c-0.135-2.585-0.918-4.951-2.825-6.591C126.776,174.741,128.064,173.738,129.062,172.893z M123.572,248.521
			c-7.148-4.125-14.165-8.378-21.007-12.901c0.594-2.32,1.496-4.56,3.075-6.359c2.194-2.503,4.425-4.951,6.184-7.794
			c2.096-3.384,2.666-7.197,4.428-10.673c1.264-2.491,3.402-4.654,4.862-7.066c1.781-2.934,3.458-6.003,4.633-9.235
			c0.606-1.668,1.307-3.788,1.805-6.034c0.309,0.823,0.863,1.536,1.76,2.044c4.483,2.546,10.578-1.998,13.819-4.731
			c2.035-1.716,3.816-3.754,5.471-5.829c1.359-1.705,2.359-3.837,3.831-5.419c2.053-2.209,4.673-3.638,6.57-6.065
			c1.594-2.035,2.779-4.312,4.012-6.573c0.762-1.396,1.891-2.515,3.155-3.473c3.091,2.601,6.117,5.303,9.048,8.198
			c1.494,1.475,2.947,2.962,4.367,4.465c-0.814,0.41-1.662,0.756-2.613,0.991c-2.965,0.729-5.899,1.646-8.718,2.821
			c-2.561,1.068-4.973,2.365-7.114,4.14c-1.857,1.54-3.706,3.559-6.108,4.22c-3.048,0.838-5.71,2.775-7.818,5.184
			c-4.036-3.36-9.523,1.114-12.283,4.085c-4.287,4.617-7.482,11.111-6.946,17.543c0.266,3.207-1.359,6.349-2.396,9.29
			c-1.196,3.391-1.695,6.891-1.848,10.474c-0.168,3.945,0.024,7.914,0.465,11.833C124.481,244.075,124.123,246.232,123.572,248.521z
			 M147.605,261.863c-7.892-4.269-15.649-8.522-23.25-12.895c0.584-2.506,1.518-4.942,3.216-6.876
			c2.194-2.503,4.425-4.951,6.184-7.793c2.096-3.385,2.666-7.197,4.428-10.673c1.264-2.491,3.403-4.654,4.866-7.066
			c1.781-2.934,3.458-6.003,4.633-9.235c0.395-1.089,0.829-2.377,1.227-3.761c3.516-0.655,7.151-3.384,9.403-5.288
			c2.035-1.717,3.816-3.755,5.471-5.829c1.359-1.705,2.359-3.837,3.831-5.419c2.053-2.209,4.673-3.638,6.57-6.065
			c1.594-2.035,2.779-4.312,4.012-6.573c0.536-0.982,1.276-1.809,2.093-2.562c4.373,4.669,8.394,9.468,12.059,14.37
			c-2.742,0.701-5.45,1.548-8.063,2.638c-2.561,1.068-4.973,2.365-7.114,4.14c-1.857,1.539-3.709,3.559-6.108,4.22
			c-2.772,0.765-5.214,2.448-7.222,4.553c-1.903,1.095-3.635,2.684-4.844,3.984c-4.287,4.618-7.482,11.111-6.946,17.543
			c0.266,3.207-1.362,6.35-2.396,9.291c-1.193,3.39-1.695,6.891-1.848,10.474c-0.168,3.944,0.024,7.913,0.465,11.833
			C148.545,257.334,148.171,259.525,147.605,261.863z M165.409,260.131c-1.405,3.069-2.849,6.224-3.287,9.596
			c-3.372-1.836-6.738-3.654-10.101-5.472c-1.218-0.658-2.42-1.312-3.632-1.967c0.582-2.54,1.524-5.016,3.244-6.974
			c2.194-2.503,4.425-4.951,6.185-7.793c0.336-0.542,0.584-1.111,0.854-1.674c0.921-0.132,2.05-0.248,3.274-0.248
			c4.036,0,6.215,1.145,6.475,3.384C168.814,252.683,167.162,256.299,165.409,260.131z M218.515,310.22
			c-2.378-2.161-4.633-4.138-6.83-5.995c-4.07-3.437-8.366-6.869-12.775-10.205c-0.97-0.734-1.986-1.41-2.993-2.077
			c-4.217-2.797-6.791-4.728-6.494-8.987c0.208-3.072,0.97-5.811,1.708-8.461c1.601-5.756,3.112-11.187-1.331-18.32
			c-5.967-9.951-16.695-16.001-26.717-14.82c-0.964,0.107-1.891,0.312-2.815,0.529c0.582-1.701,1.145-3.409,1.974-5.04
			c1.264-2.491,3.402-4.654,4.865-7.066c1.781-2.935,3.458-6.003,4.633-9.235c0.78-2.145,1.71-5.031,2.176-7.978
			c0.134-0.11,0.291-0.235,0.419-0.343c2.035-1.716,3.816-3.754,5.471-5.829c0.309-0.386,0.594-0.796,0.873-1.215
			c0.211,7.377,4.675,13.975,9.553,18.186c7.007,6.046,14.271,7.506,23.017,4.59C218.888,251.55,220.571,277.814,218.515,310.22z
			 M404.698,174.117c2.123,3.366,5.303,5.548,7.653,8.654c1.686,2.228,2.695,5.098,4.22,7.466c1.857,2.885,3.883,5.737,6.272,8.21
			c0.07,0.073,0.15,0.153,0.224,0.229c-1.604-0.294-3.174-0.07-4.425,1.181c-0.34,0.339-0.557,0.731-0.796,1.117
			c-2.295-2.925-5.184-5.367-8.607-6.695c-2.999-1.163-5.113-4.002-7.302-6.224c-2.524-2.558-5.452-4.541-8.607-6.248
			c-3.354-1.815-6.876-3.323-10.462-4.615c5.805-3.935,11.744-7.662,17.818-11.346C401.876,168.676,403.048,171.504,404.698,174.117
			z M380.933,136.097c0.272-2.928,3.868-3.541,6.833-3.541c0.78,0,1.503,0.049,2.164,0.11c0.095,0.15,0.208,0.291,0.297,0.443
			c1.615,2.837,2.246,6.004,4.137,8.752c1.585,2.307,3.553,4.266,5.49,6.273c0.33,0.343,0.584,0.74,0.859,1.123
			c-1.021,0.581-2.032,1.16-3.06,1.744c-3.32,1.888-6.649,3.779-9.982,5.686c-0.511-3.363-2.022-6.484-3.494-9.523
			C382.35,143.374,380.619,139.793,380.933,136.097z M287.564,150.466c0.15,0.058,0.31,0.089,0.456,0.159
			c1.552,0.744,3.081,1.515,4.743,1.995c1.977,0.572,3.956,0.324,5.933,0.719c1.417,0.281,2.794,1.046,4.198,1.438
			c1.711,0.478,3.471,0.888,5.245,1.022c1.634,0.125,4.015,0.184,6.02-0.379c0.162,2.662,0.786,5.34,1.34,7.304
			c0.786,2.791,2.004,5.48,3.317,8.057c1.08,2.118,2.741,4.073,3.647,6.246c1.267,3.032,1.502,6.276,3.057,9.253
			c1.301,2.5,3.023,4.7,4.713,6.943c1.107,1.469,1.713,3.213,2.087,5.012c-4.438,4.177-8.614,8.418-12.531,12.681
			c0.027-2.638-0.049-5.281-0.354-7.897c-0.353-3.005-0.992-5.918-2.21-8.697c-1.056-2.408-2.619-4.951-2.595-7.666
			c0.043-4.829-2.39-9.51-5.661-13.032c1.02-0.318,1.916-0.851,2.562-1.726c1.922-2.613-1.059-5.798-2.996-7.368
			c-3.005-2.43-7.111-4.116-11.021-3.519c-1.949,0.297-3.941-0.566-5.783-1.08c-2.124-0.591-4.288-0.75-6.484-0.695
			c-1.304,0.034-2.601,0.141-3.899,0.291C283.57,156.415,285.627,153.407,287.564,150.466z M276.22,166.617
			c0.903-1.239,1.806-2.491,2.708-3.74c1.276,0.97,2.562,1.925,3.987,2.678c2.157,1.142,4.514,1.331,6.714,2.265
			c1.576,0.67,2.989,1.888,4.525,2.68c0.563,0.291,1.15,0.554,1.729,0.827c-0.548,1.086-0.759,2.332-0.784,3.632
			c-1.196-0.202-2.411-0.254-3.607-0.07c-1.949,0.297-3.941-0.566-5.783-1.08c-2.124-0.591-4.287-0.75-6.484-0.695
			c-2.42,0.062-4.841,0.346-7.221,0.777c-0.386,0.07-0.762,0.107-1.132,0.128C272.625,171.565,274.406,169.108,276.22,166.617z
			 M270.155,175.014c0.606,0.254,1.19,0.554,1.72,0.955c1.622,1.236,3.213,2.5,5.028,3.458c2.157,1.141,4.513,1.331,6.713,2.264
			c1.576,0.67,2.99,1.888,4.526,2.681c1.87,0.967,3.815,1.864,5.842,2.448c1.374,0.395,3.228,0.841,5.092,0.991
			c0.997,1.818,2.096,3.586,3.289,5.263c1.38,1.934,3.314,3.623,4.532,5.64c1.698,2.812,2.414,5.985,4.391,8.7
			c1.656,2.28,3.688,4.201,5.688,6.169c0.067,0.064,0.11,0.147,0.175,0.214c-3.409,3.855-6.652,7.803-9.759,11.82
			c-0.349-1.658-0.755-3.308-1.242-4.93c-0.869-2.897-2.007-5.655-3.688-8.179c-1.459-2.188-3.442-4.418-3.889-7.096
			c-0.26-1.551-0.799-3.032-1.509-4.44c0.572-0.315,1.102-0.701,1.509-1.251c1.922-2.613-1.059-5.799-2.999-7.369
			c-3.002-2.43-7.108-4.116-11.022-3.519c-1.949,0.297-3.941-0.566-5.784-1.08c-2.124-0.59-4.287-0.75-6.484-0.694
			c-2.42,0.061-4.841,0.346-7.222,0.777c-1.227,0.224-2.359,0.171-3.528,0.009C264.277,183.505,267.141,179.246,270.155,175.014z
			 M279.963,216.042c2.775,0.799,7.497,1.867,10.309,0.064c0.997,0.792,1.979,1.594,2.787,2.519
			c2.164,2.475,3.422,5.474,5.836,7.806c1.527,1.475,3.24,2.699,4.976,3.902c-2.901,3.962-5.658,7.993-8.262,12.09
			c-0.809-1.857-1.684-3.684-2.647-5.465c-1.707-3.155-3.689-6.083-6.248-8.608c-2.222-2.188-5.062-4.302-6.224-7.301
			c-0.939-2.427-2.448-4.581-4.278-6.454C277.435,215.155,278.678,215.672,279.963,216.042z M271.686,203.031
			c-2.124-0.591-4.287-0.75-6.484-0.695c-2.42,0.061-4.841,0.346-7.222,0.777c-1.704,0.312-3.219,0.098-4.92-0.22
			c0.456-0.927,0.894-1.854,1.368-2.782c2.09-4.082,4.397-7.95,6.781-11.753c1.34,0.275,2.638,0.725,3.727,1.558
			c1.622,1.236,3.213,2.5,5.027,3.458c2.158,1.142,4.514,1.331,6.714,2.265c0.165,0.07,0.324,0.168,0.486,0.248
			c0.055,2.714,1.316,5.661,2.724,8.152c-0.808-0.055-1.616-0.052-2.42,0.071C275.52,204.408,273.528,203.545,271.686,203.031z
			 M249.626,158.774c0.744-1.307,3.1-2.408,5.306-3.008c1.75,1.294,3.148,2.944,5.113,4.027c1.793,0.991,3.721,1.634,5.646,2.313
			c0.08,0.028,0.147,0.08,0.223,0.11c-0.719,0.949-1.429,1.894-2.154,2.846c-1.509,1.992-3.023,3.99-4.532,5.992
			c-1.276-1.842-2.989-3.326-4.657-4.78c-2.203-1.91-4.281-3.718-5.067-6.086C249.332,159.662,249.369,159.224,249.626,158.774z
			 M264.311,329.824c-1.154,10.218-1.738,20.521-1.741,30.726c-0.591-1.404-1.181-2.812-1.769-4.22
			c-11.879-28.451-19.144-53.391-22.191-76.006c0.073-3.397,0.073-6.497,0-9.483c-0.006-0.202-0.015-0.41-0.024-0.615
			c8.632-0.254,14.804-3.929,19.354-11.512c4.208-7.001,6.606-17.448,0.719-25.771c-0.438-0.612-1.261-0.817-1.928-0.486
			c-0.676,0.333-1.007,1.111-0.784,1.83c1.38,4.395,1.57,7.439,0.566,9.049c-0.49,0.79-1.319,1.264-2.525,1.45
			c-2.65,0.401-5.263-0.055-8.084-0.539c-2.194-0.373-4.575-0.747-6.769-0.737c2.537-13.247,7.142-26.711,13.672-40.098
			c1.796,0.214,3.602,0.679,5.046,1.781c0.74,0.566,1.478,1.129,2.23,1.674c-2.687-0.107-5.227,0.597-6.374,3.201
			c-2.687,6.096,3.951,13.342,7.886,17.148c2.473,2.39,5.324,4.416,8.21,6.273c2.369,1.524,5.242,2.534,7.466,4.22
			c3.106,2.353,5.288,5.529,8.654,7.656c1.91,1.208,3.941,2.151,6,3.039C276.967,273.692,267.545,301.271,264.311,329.824z
			 M309.192,341.937c-0.037-0.086-0.049-0.175-0.089-0.261c-0.7-1.594-1.735-3.28-1.72-5.076c0.034-3.604-2.017-7.093-4.596-9.486
			c-1.665-1.545-4.924-3.821-7.032-1.753c-2.656,2.607-0.71,7.741,0.545,10.532c0.789,1.754,1.848,3.394,2.962,4.954
			c0.915,1.282,2.197,2.399,3.002,3.736c0.842,1.393,1.318,2.916,2.053,4.349c-6.82,10.202-12.738,20.823-17.644,31.827
			c1.2-34.468,5.272-64.435,12.249-90.968c-0.079,3.706,1.561,7.925,2.791,10.664c1.19,2.646,2.794,5.122,4.474,7.479
			c1.38,1.934,3.313,3.623,4.532,5.64c1.698,2.812,2.414,5.985,4.391,8.699c1.503,2.068,3.317,3.838,5.132,5.615
			C316.352,332.463,312.665,337.147,309.192,341.937z M323.617,323.971c-0.033-2.035-0.125-4.069-0.364-6.089
			c-0.352-3.005-0.991-5.918-2.209-8.697c-1.056-2.408-2.619-4.95-2.595-7.665c0.049-5.443-3.045-10.706-6.94-14.32
			c-2.516-2.334-7.433-5.771-10.615-2.647c-0.386,0.38-0.654,0.82-0.918,1.264c1.344-4.835,2.754-9.593,4.303-14.202
			c5.052,2.277,9.792,3.342,14.388,3.326c0.214,0.955,0.438,1.864,0.658,2.641c0.786,2.791,2.004,5.48,3.316,8.057
			c1.081,2.117,2.742,4.072,3.647,6.245c1.268,3.032,1.503,6.276,3.058,9.254c1.3,2.5,3.023,4.7,4.712,6.942
			c0.762,1.013,1.261,2.167,1.646,3.363C331.435,315.58,327.377,319.764,323.617,323.971z M344.853,302.958
			c-2.806,2.476-5.502,4.991-8.143,7.519c-0.006-0.833,0.033-1.671,0.199-2.546c0.614-3.271,1.024-6.598,1.132-9.927
			c0.095-3.023-0.107-6.001-0.899-8.926c-0.688-2.537-1.86-5.285-1.436-7.965c0.569-3.583-0.272-7.286-1.866-10.591
			c1.135-0.67,2.273-1.38,3.412-2.203c0.321-0.233,0.643-0.487,0.964-0.734c0.64,1.594,1.343,3.164,2.117,4.685
			c1.077,2.118,2.742,4.073,3.647,6.246c1.264,3.032,1.503,6.276,3.054,9.253c1.301,2.5,3.026,4.7,4.713,6.943
			c0.373,0.495,0.661,1.04,0.937,1.591C350.025,298.506,347.39,300.721,344.853,302.958z M365.71,254.424
			c-4.3,7.249-2.672,12.653-0.949,18.372c0.793,2.628,1.609,5.352,1.889,8.418c0.385,4.253-2.143,6.236-6.301,9.125
			c-0.988,0.686-1.989,1.383-2.947,2.136c-0.951,0.753-1.875,1.527-2.814,2.289c0.012-0.07,0.009-0.135,0.024-0.205
			c0.614-3.271,1.024-6.598,1.132-9.927c0.095-3.023-0.107-6-0.899-8.926c-0.688-2.537-1.86-5.285-1.436-7.965
			c0.759-4.78-0.964-9.783-3.69-13.751c2.702-5.374,3.981-11.527,2.577-18.094c-0.159-0.734-0.812-1.307-1.582-1.209
			c-0.75,0.04-1.362,0.622-1.438,1.371c-0.71,6.958-2.289,11.056-4.844,12.595c-1.879-1.163-3.979-1.667-5.875-0.288
			c-0.077,0.055-0.12,0.138-0.193,0.199c-3.005-1.089-5.771-2.828-8.656-4.694c-2.834-1.839-5.747-3.727-9.003-4.966
			c10.508-15.676,23.749-30.496,39.397-44.165c0.713,1.671,1.453,3.323,2.43,4.869c1.606,2.546,4.012,4.195,5.789,6.545
			c1.276,1.683,2.038,3.855,3.192,5.648c1.404,2.182,2.938,4.339,4.746,6.209c1.691,1.747,4.283,4.171,7.068,5.486
			c-3.721,3.975-0.539,11.224,1.515,15.184c0.146,0.281,0.343,0.542,0.502,0.82C377.506,241.11,370.193,246.562,365.71,254.424z
			 M393.66,267.398c-0.511-3.363-2.022-6.484-3.491-9.522c-1.836-3.789-3.567-7.369-3.25-11.065c0.107-1.163,0.75-1.949,1.659-2.488
			c0.367,0.477,0.713,0.976,1.089,1.441c1.473,1.824,3.504,3.39,4.816,5.3c1.83,2.662,2.672,5.707,4.78,8.265
			c0.927,1.129,1.961,2.154,3.035,3.143C399.419,264.109,396.54,265.746,393.66,267.398z M407.911,259.274
			c-0.116-1.493-0.272-2.983-0.511-4.461c-0.466-2.895-1.222-5.688-2.559-8.335c-1.16-2.292-2.846-4.7-2.916-7.323
			c-0.141-5.263-3.479-10.251-7.573-13.617c-1.004-0.823-2.366-1.787-3.838-2.497c1.998-2.173,0.988-6.334,0.04-8.785
			c-1.72-4.446-5.076-8.77-9.627-10.536c-2.268-0.881-3.868-3.03-5.523-4.707c-1.909-1.937-4.125-3.437-6.508-4.728
			c-1.732-0.937-3.535-1.738-5.358-2.485c0.597-0.505,1.172-1.022,1.774-1.521c4.845-4.015,9.808-7.702,14.862-11.218
			c0.145,0.275,0.334,0.523,0.456,0.811c1.288,3.069,2.513,6.147,4.3,8.972c2.123,3.366,5.303,5.548,7.656,8.654
			c1.686,2.228,2.695,5.098,4.22,7.466c1.315,2.047,2.775,4.024,4.333,5.912c-0.046,0.043-0.102,0.058-0.147,0.104
			c-3.947,3.941-0.679,11.337,1.401,15.346c1.307,2.519,3.026,4.859,4.819,7.081c1.476,1.824,3.504,3.391,4.816,5.3
			c1.83,2.662,2.672,5.707,4.78,8.265c1.371,1.667,2.975,3.109,4.605,4.532C416.958,254.099,412.455,256.685,407.911,259.274z
			 M425.551,249.075c-0.092-2.215-0.257-4.428-0.608-6.619c-0.466-2.895-1.222-5.688-2.559-8.333c-1.16-2.292-2.846-4.7-2.916-7.322
			c-0.049-1.79-0.486-3.541-1.179-5.214c0.655-0.092,1.304-0.248,1.938-0.529c1.031-0.456,1.717-1.157,2.225-1.971
			c0.768,1.092,1.579,2.16,2.417,3.195c1.476,1.824,3.504,3.39,4.816,5.3c1.83,2.662,2.672,5.707,4.78,8.265
			c1.453,1.766,3.164,3.283,4.896,4.789C434.814,243.506,430.218,246.318,425.551,249.075z M443.217,238.206
			c-0.086-2.301-0.255-4.602-0.618-6.875c-0.466-2.895-1.222-5.689-2.559-8.333c-1.16-2.292-2.846-4.7-2.916-7.323
			c-0.092-3.351-1.481-6.585-3.531-9.363c2.147,0.759,4.339,0.93,6.401,0.021c0.927-0.41,1.558-1.031,2.057-1.738
			c0.076,0.303,0.152,0.618,0.223,0.887c0.625,2.292,1.622,4.504,2.705,6.634c0.888,1.747,2.283,3.372,3.023,5.159
			c1.031,2.497,1.179,5.147,2.454,7.604c1.071,2.062,2.513,3.889,3.923,5.747c0.007,0.009,0.01,0.019,0.016,0.024
			C450.717,233.243,446.993,235.761,443.217,238.206z"/>
	</g>
</g>
<g>
</g>
<g>
</g>
<g>
</g>
<g>
</g>
<g>
</g>
<g>
</g>
<g>
</g>
<g>
</g>
<g>
</g>
<g>
</g>
<g>
</g>
<g>
</g>
<g>
</g>
<g>
</g>
<g>
</g>
</svg>
